<?xml version="1.0" encoding="utf-8"?>
<svg version="1.1" id="Calque_1" xmlns="http://www.w3.org/2000/svg" xmlns:xlink="http://www.w3.org/1999/xlink" x="0px" y="0px"
	 viewBox="0 0 200 60" style="enable-background:new 0 0 200 60;" xml:space="preserve">
	<path d="M44.07,17.07h8.89c0.37,0,0.7,0.21,0.86,0.54l7.25,15.36h0.12l7.25-15.36c0.16-0.33,0.49-0.54,0.86-0.54h8.91
			c0.52,0,0.95,0.42,0.95,0.95v23.47c0,0.52-0.42,0.95-0.95,0.95h-6.05c-0.52,0-0.95-0.42-0.95-0.95V28.53
			c0-0.52-0.42-0.95-0.95-0.95h-0.01c-0.84,0-1.26-1.01-0.68-1.61l0.1-0.11c0.75-0.76,1.99,0.1,1.53,1.07l-7.01,14.96
			c-0.16,0.33-0.49,0.55-0.86,0.55h-4.42c-0.37,0-0.7-0.21-0.86-0.55l-6.99-14.94c-0.45-0.97,0.79-1.83,1.54-1.06l0.09,0.09
			c0.59,0.6,0.16,1.61-0.68,1.61h0c-0.52,0-0.95,0.42-0.95,0.95v12.96c0,0.52-0.42,0.95-0.95,0.95h-6.07c-0.52,0-0.95-0.42-0.95-0.95
			V18.02C43.13,17.49,43.55,17.07,44.07,17.07z"/>
		<path d="M83.8,17.07h6.91c0.52,0,0.95,0.42,0.95,0.95v23.47c0,0.52-0.42,0.95-0.95,0.95H83.8c-0.52,0-0.95-0.42-0.95-0.95V18.02
			C82.85,17.49,83.28,17.07,83.8,17.07z"/>
		<path d="M96.32,17.07h6.14c0.26,0,0.5,0.1,0.68,0.29l12.55,12.94c0.75,0.77-0.16,1.99-1.11,1.5l-2.17-1.11h2.64
			c0.52,0,0.95-0.42,0.95-0.95V18.02c0-0.52,0.42-0.95,0.95-0.95h6.67c0.52,0,0.95,0.42,0.95,0.95v23.47c0,0.52-0.42,0.95-0.95,0.95
			h-6.1c-0.26,0-0.51-0.11-0.68-0.29L104.25,29c-0.74-0.77,0.17-1.99,1.12-1.5l2.18,1.13h-2.67c-0.52,0-0.95,0.42-0.95,0.95v11.9
			c0,0.52-0.42,0.95-0.95,0.95h-6.67c-0.52,0-0.95-0.42-0.95-0.95V18.02C95.37,17.49,95.79,17.07,96.32,17.07z"/>
		<path d="M129.19,17.07h6.91c0.52,0,0.95,0.42,0.95,0.95v23.47c0,0.52-0.42,0.95-0.95,0.95h-6.91c-0.52,0-0.95-0.42-0.95-0.95V18.02
			C128.24,17.49,128.66,17.07,129.19,17.07z M136.68,27.26h0.51l10.45-9.93c0.18-0.17,0.41-0.26,0.65-0.26h7.62
			c0.86,0,1.28,1.05,0.65,1.64l-10.3,9.6c-0.18,0.17-0.41,0.26-0.66,0.25l-0.73-0.01c-0.25,0-0.49,0.09-0.66,0.26l-5.92,5.64
			c-0.6,0.57-1.6,0.15-1.6-0.69V27.26z M138.73,29.82l5.24-3.57c0.4-0.27,0.95-0.2,1.26,0.17l12.17,14.45
			c0.52,0.62,0.08,1.56-0.72,1.56h-8.37c-0.28,0-0.55-0.13-0.73-0.34l-9.04-10.88C138.18,30.78,138.27,30.14,138.73,29.82z"/>
</svg>
